<svg xmlns="http://www.w3.org/2000/svg" width="1400" height="900" viewBox="0 0 1400 900" style="font-family:'DejaVu Sans', Arial, sans-serif; background:#f6f8fb">
  <rect x="80" y="80" width="820" height="740" rx="40" fill="#fff" stroke="#d0d7de" stroke-width="4"/>
  <rect x="110" y="110" width="760" height="90" fill="#0f172a" rx="15"/>
  <text x="140" y="168" font-size="40" fill="white">FireNetStats</text>
  <text x="780" y="168" font-size="24" fill="#cbd5f5" text-anchor="end">Ajustes ⚙</text>

  <rect x="110" y="230" width="760" height="210" rx="25" fill="#0ea5e9" stroke="#0284c7" stroke-width="3"/>
  <text x="140" y="270" font-size="30" fill="white">Estado actual</text>
  <text x="140" y="320" font-size="24" fill="white">Descarga: 120 Mbps ↓</text>
  <text x="140" y="360" font-size="24" fill="white">Carga: 35 Mbps ↑</text>
  <text x="140" y="400" font-size="24" fill="white">Ping: 18 ms</text>

  <rect x="110" y="470" width="760" height="220" rx="25" fill="#e0f2fe" stroke="#bae6fd" stroke-width="3"/>
  <text x="140" y="510" font-size="30" fill="#0f172a">Historial de velocidades</text>
  <polyline points="150,650 220,610 290,640 360,600 430,620 500,580 570,600 640,560 710,590 780,550" fill="none" stroke="#0284c7" stroke-width="5"/>

  <rect x="110" y="720" width="320" height="90" rx="20" fill="#22c55e"/>
  <text x="270" y="775" font-size="24" fill="#fff" text-anchor="middle">Iniciar monitorización</text>

  <rect x="450" y="720" width="420" height="90" rx="20" fill="#f97316"/>
  <text x="660" y="775" font-size="24" fill="#fff" text-anchor="middle">Alertas y notificaciones</text>

  <rect x="110" y="830" width="760" height="100" rx="25" fill="#fff" stroke="#d4d4d8" stroke-width="3"/>
  <text x="140" y="890" font-size="24" fill="#0f172a">Promedios diarios · Red usada · Último adaptador</text>

  <rect x="950" y="250" width="300" height="150" rx="30" fill="#fff" stroke="#0ea5e9" stroke-width="4"/>
  <text x="1100" y="300" font-size="28" fill="#0f172a" text-anchor="middle">Widget flotante</text>
  <text x="1100" y="340" font-size="26" fill="#0ea5e9" text-anchor="middle">↓ 120 Mbps</text>
  <text x="1100" y="370" font-size="26" fill="#0ea5e9" text-anchor="middle">↑ 35 Mbps</text>
  <text x="1100" y="400" font-size="20" fill="#334155" text-anchor="middle">Drag &amp; drop / tap</text>

  <text x="1030" y="170" font-size="22" fill="#475569">Panel principal con métricas clave y gráficos</text>
  <text x="980" y="460" font-size="22" fill="#475569">Botones para acciones rápidas</text>
  <text x="1030" y="640" font-size="22" fill="#475569">Sección para estadísticas avanzadas</text>
</svg>
